<svg xmlns="http://www.w3.org/2000/svg" xmlns:xlink="http://www.w3.org/1999/xlink" width="500" zoomAndPan="magnify" viewBox="0 0 375 374.999991" height="500" preserveAspectRatio="xMidYMid meet" version="1.0"><defs><g/><clipPath id="a7a6032b8b"><path d="M 57 118.519531 L 128 118.519531 L 128 173 L 57 173 Z M 57 118.519531 " clip-rule="nonzero"/></clipPath><clipPath id="0111e8f612"><path d="M 246 118.519531 L 317.90625 118.519531 L 317.90625 173 L 246 173 Z M 246 118.519531 " clip-rule="nonzero"/></clipPath><clipPath id="ff017b7903"><path d="M 132 125 L 242 125 L 242 182.269531 L 132 182.269531 Z M 132 125 " clip-rule="nonzero"/></clipPath></defs><g clip-path="url(#a7a6032b8b)"><path fill="#d91c5c" d="M 127.835938 152.242188 C 121.753906 140.292969 118.519531 128.34375 117.753906 123.65625 C 103.191406 123.605469 77.058594 122.398438 57.414062 118.507812 C 59.902344 127.234375 61.015625 130.792969 63.207031 135.472656 C 73.074219 137.0625 97.628906 138.363281 105.972656 138.019531 C 98.945312 140.402344 78.28125 139.863281 74.464844 139.863281 C 76.070312 144.832031 79.332031 149.800781 82.605469 153.5625 C 91.125 153.996094 107.078125 153.789062 113.011719 153.460938 C 109.132812 155.265625 96.179688 156.160156 93.136719 156.160156 C 95.375 159.808594 99.4375 164.84375 102.96875 167.644531 C 108.816406 167.644531 118.535156 166.828125 122.273438 166.675781 C 123.691406 168.632812 125.59375 170.609375 127.832031 172.363281 L 127.832031 152.242188 Z M 127.835938 152.242188 " fill-opacity="1" fill-rule="nonzero"/></g><g clip-path="url(#0111e8f612)"><path fill="#d91c5c" d="M 311.605469 135.46875 C 313.800781 130.789062 314.910156 127.230469 317.398438 118.503906 C 297.753906 122.394531 271.621094 123.605469 257.058594 123.652344 C 256.28125 128.410156 252.972656 140.621094 246.726562 152.730469 L 246.726562 172.535156 C 246.726562 172.542969 246.726562 172.546875 246.726562 172.554688 C 249.074219 170.753906 251.0625 168.699219 252.535156 166.671875 C 256.273438 166.824219 265.992188 167.640625 271.84375 167.640625 C 275.375 164.839844 279.433594 159.804688 281.671875 156.15625 C 278.628906 156.15625 265.675781 155.257812 261.796875 153.457031 C 267.730469 153.785156 283.683594 153.992188 292.203125 153.558594 C 295.476562 149.796875 298.738281 144.828125 300.34375 139.859375 C 296.53125 139.859375 275.863281 140.398438 268.835938 138.015625 C 277.179688 138.359375 301.738281 137.0625 311.605469 135.46875 Z M 311.605469 135.46875 " fill-opacity="1" fill-rule="nonzero"/></g><g clip-path="url(#ff017b7903)"><path fill="#29292d" d="M 232.242188 125.6875 L 142.324219 125.6875 C 136.976562 125.6875 132.640625 130.03125 132.640625 135.390625 L 132.640625 172.539062 C 132.640625 177.898438 136.976562 182.242188 142.324219 182.242188 L 174.628906 182.242188 C 176.75 182.242188 178.464844 180.523438 178.464844 178.398438 C 178.464844 176.273438 180.183594 174.554688 182.300781 174.554688 L 192.257812 174.554688 C 194.378906 174.554688 196.09375 176.277344 196.09375 178.398438 C 196.09375 180.523438 197.8125 182.242188 199.929688 182.242188 L 232.234375 182.242188 C 237.582031 182.242188 241.917969 177.898438 241.917969 172.539062 L 241.917969 135.390625 C 241.925781 130.03125 237.585938 125.6875 232.242188 125.6875 Z M 164.269531 164.195312 C 158.191406 164.195312 153.261719 159.253906 153.261719 153.164062 C 153.261719 147.074219 158.191406 142.132812 164.269531 142.132812 C 170.34375 142.132812 175.273438 147.074219 175.273438 153.164062 C 175.273438 159.253906 170.34375 164.195312 164.269531 164.195312 Z M 210.292969 164.195312 C 204.21875 164.195312 199.289062 159.253906 199.289062 153.164062 C 199.289062 147.074219 204.21875 142.132812 210.292969 142.132812 C 216.371094 142.132812 221.300781 147.074219 221.300781 153.164062 C 221.300781 159.253906 216.375 164.195312 210.292969 164.195312 Z M 210.292969 164.195312 " fill-opacity="1" fill-rule="nonzero"/></g><g fill="#d91c5c" fill-opacity="1"><g transform="translate(58.570302, 227.190688)"><g><path d="M 28.171875 -13.53125 C 28.171875 -8.988281 27.054688 -5.535156 24.828125 -3.171875 C 22.597656 -0.804688 19.335938 0.375 15.046875 0.375 C 10.816406 0.375 7.570312 -0.8125 5.3125 -3.1875 C 3.050781 -5.5625 1.921875 -9.023438 1.921875 -13.578125 C 1.921875 -18.066406 3.039062 -21.492188 5.28125 -23.859375 C 7.53125 -26.234375 10.796875 -27.421875 15.078125 -27.421875 C 19.378906 -27.421875 22.632812 -26.242188 24.84375 -23.890625 C 27.0625 -21.535156 28.171875 -18.082031 28.171875 -13.53125 Z M 9.59375 -13.53125 C 9.59375 -8.3125 11.410156 -5.703125 15.046875 -5.703125 C 16.890625 -5.703125 18.257812 -6.335938 19.15625 -7.609375 C 20.050781 -8.878906 20.5 -10.851562 20.5 -13.53125 C 20.5 -16.226562 20.046875 -18.21875 19.140625 -19.5 C 18.234375 -20.789062 16.878906 -21.4375 15.078125 -21.4375 C 11.421875 -21.4375 9.59375 -18.800781 9.59375 -13.53125 Z M 9.59375 -13.53125 "/></g></g></g><g fill="#d91c5c" fill-opacity="1"><g transform="translate(88.69591, 227.190688)"><g><path d="M 13.75 -15.796875 L 25.40625 -15.796875 L 25.40625 -1.25 C 22.238281 -0.164062 18.757812 0.375 14.96875 0.375 C 10.8125 0.375 7.597656 -0.832031 5.328125 -3.25 C 3.054688 -5.664062 1.921875 -9.109375 1.921875 -13.578125 C 1.921875 -17.929688 3.160156 -21.316406 5.640625 -23.734375 C 8.128906 -26.160156 11.613281 -27.375 16.09375 -27.375 C 17.789062 -27.375 19.394531 -27.210938 20.90625 -26.890625 C 22.414062 -26.578125 23.726562 -26.175781 24.84375 -25.6875 L 22.546875 -19.953125 C 20.597656 -20.921875 18.460938 -21.40625 16.140625 -21.40625 C 14.003906 -21.40625 12.351562 -20.710938 11.1875 -19.328125 C 10.03125 -17.941406 9.453125 -15.960938 9.453125 -13.390625 C 9.453125 -10.859375 9.976562 -8.929688 11.03125 -7.609375 C 12.082031 -6.285156 13.597656 -5.625 15.578125 -5.625 C 16.660156 -5.625 17.660156 -5.726562 18.578125 -5.9375 L 18.578125 -10.171875 L 13.75 -10.171875 Z M 13.75 -15.796875 "/></g></g></g><g fill="#d91c5c" fill-opacity="1"><g transform="translate(116.680238, 227.190688)"><g><path d="M 10.203125 -9.828125 L 10.203125 0 L 2.921875 0 L 2.921875 -27 L 11.765625 -27 C 19.097656 -27 22.765625 -24.335938 22.765625 -19.015625 C 22.765625 -15.890625 21.238281 -13.472656 18.1875 -11.765625 L 26.046875 0 L 17.78125 0 L 12.0625 -9.828125 Z M 10.203125 -15.3125 L 11.578125 -15.3125 C 14.117188 -15.3125 15.390625 -16.4375 15.390625 -18.6875 C 15.390625 -20.539062 14.144531 -21.46875 11.65625 -21.46875 L 10.203125 -21.46875 Z M 10.203125 -15.3125 "/></g></g></g><g fill="#d91c5c" fill-opacity="1"><g transform="translate(142.264853, 227.190688)"><g><path d="M 18.9375 0 L 2.921875 0 L 2.921875 -27 L 18.9375 -27 L 18.9375 -21.140625 L 10.203125 -21.140625 L 10.203125 -16.890625 L 18.296875 -16.890625 L 18.296875 -11.046875 L 10.203125 -11.046875 L 10.203125 -5.9375 L 18.9375 -5.9375 Z M 18.9375 0 "/></g></g></g><g fill="#d91c5c" fill-opacity="1"><g transform="translate(163.013128, 227.190688)"><g><path d="M 28.625 0 L 19.046875 0 L 9.1875 -19.015625 L 9.03125 -19.015625 C 9.257812 -16.023438 9.375 -13.742188 9.375 -12.171875 L 9.375 0 L 2.921875 0 L 2.921875 -27 L 12.4375 -27 L 22.265625 -8.234375 L 22.375 -8.234375 C 22.207031 -10.953125 22.125 -13.132812 22.125 -14.78125 L 22.125 -27 L 28.625 -27 Z M 28.625 0 "/></g></g></g><g fill="#d91c5c" fill-opacity="1"><g transform="translate(194.541645, 227.190688)"><g><path d="M 2.921875 0 L 2.921875 -27 L 10.25 -27 L 10.25 0 Z M 2.921875 0 "/></g></g></g><g fill="#d91c5c" fill-opacity="1"><g transform="translate(207.703139, 227.190688)"><g><path d="M 2.921875 0 L 2.921875 -27 L 10.203125 -27 L 10.203125 -5.890625 L 20.609375 -5.890625 L 20.609375 0 Z M 2.921875 0 "/></g></g></g><g fill="#d91c5c" fill-opacity="1"><g transform="translate(229.706647, 227.190688)"><g><path d="M 19.484375 0 L 18.15625 -5.0625 L 9.375 -5.0625 L 8.015625 0 L 0 0 L 8.8125 -27.109375 L 18.53125 -27.109375 L 27.453125 0 Z M 16.640625 -11.046875 L 15.46875 -15.46875 C 15.195312 -16.457031 14.867188 -17.734375 14.484375 -19.296875 C 14.097656 -20.859375 13.84375 -21.976562 13.71875 -22.65625 C 13.601562 -22.03125 13.382812 -20.992188 13.0625 -19.546875 C 12.738281 -18.109375 12.015625 -15.273438 10.890625 -11.046875 Z M 16.640625 -11.046875 "/></g></g></g><g fill="#d91c5c" fill-opacity="1"><g transform="translate(257.155655, 227.190688)"><g><path d="M 28.625 0 L 19.046875 0 L 9.1875 -19.015625 L 9.03125 -19.015625 C 9.257812 -16.023438 9.375 -13.742188 9.375 -12.171875 L 9.375 0 L 2.921875 0 L 2.921875 -27 L 12.4375 -27 L 22.265625 -8.234375 L 22.375 -8.234375 C 22.207031 -10.953125 22.125 -13.132812 22.125 -14.78125 L 22.125 -27 L 28.625 -27 Z M 28.625 0 "/></g></g></g><g fill="#d91c5c" fill-opacity="1"><g transform="translate(288.684171, 227.190688)"><g><path d="M 25.828125 -14.0625 C 25.828125 -9.5625 24.585938 -6.09375 22.109375 -3.65625 C 19.628906 -1.21875 16.144531 0 11.65625 0 L 2.921875 0 L 2.921875 -27 L 12.265625 -27 C 16.597656 -27 19.941406 -25.890625 22.296875 -23.671875 C 24.648438 -21.453125 25.828125 -18.25 25.828125 -14.0625 Z M 18.265625 -13.8125 C 18.265625 -16.28125 17.773438 -18.113281 16.796875 -19.3125 C 15.816406 -20.507812 14.328125 -21.109375 12.328125 -21.109375 L 10.203125 -21.109375 L 10.203125 -5.984375 L 11.828125 -5.984375 C 14.046875 -5.984375 15.671875 -6.625 16.703125 -7.90625 C 17.742188 -9.195312 18.265625 -11.164062 18.265625 -13.8125 Z M 18.265625 -13.8125 "/></g></g></g><g fill="#29292d" fill-opacity="1"><g transform="translate(157.092004, 253.346409)"><g><path d="M 5.875 -3.328125 L 2.046875 -3.328125 L 0.734375 0 L 0 0 L 3.796875 -9.46875 L 4.203125 -9.46875 L 7.921875 0 L 7.1875 0 Z M 2.28125 -3.921875 L 5.65625 -3.921875 L 4.375 -7.3125 C 4.257812 -7.582031 4.128906 -7.953125 3.984375 -8.421875 C 3.867188 -8.015625 3.742188 -7.640625 3.609375 -7.296875 Z M 2.28125 -3.921875 "/></g></g><g transform="translate(165.015377, 253.346409)"><g><path d="M 1.984375 -4.109375 L 1.984375 0 L 1.328125 0 L 1.328125 -9.421875 L 3.578125 -9.421875 C 4.742188 -9.421875 5.601562 -9.203125 6.15625 -8.765625 C 6.71875 -8.335938 7 -7.691406 7 -6.828125 C 7 -6.191406 6.832031 -5.65625 6.5 -5.21875 C 6.175781 -4.789062 5.671875 -4.484375 4.984375 -4.296875 L 7.546875 0 L 6.765625 0 L 4.328125 -4.109375 Z M 1.984375 -4.671875 L 3.796875 -4.671875 C 4.585938 -4.671875 5.203125 -4.847656 5.640625 -5.203125 C 6.078125 -5.554688 6.296875 -6.082031 6.296875 -6.78125 C 6.296875 -7.5 6.082031 -8.019531 5.65625 -8.34375 C 5.226562 -8.664062 4.523438 -8.828125 3.546875 -8.828125 L 1.984375 -8.828125 Z M 1.984375 -4.671875 "/></g></g><g transform="translate(172.861386, 253.346409)"><g/></g><g transform="translate(176.291195, 253.346409)"><g><path d="M 5.046875 -4.75 L 8.515625 -4.75 L 8.515625 -0.453125 C 7.609375 -0.0664062 6.582031 0.125 5.4375 0.125 C 3.945312 0.125 2.804688 -0.289062 2.015625 -1.125 C 1.222656 -1.96875 0.828125 -3.160156 0.828125 -4.703125 C 0.828125 -5.660156 1.023438 -6.507812 1.421875 -7.25 C 1.816406 -7.988281 2.378906 -8.5625 3.109375 -8.96875 C 3.835938 -9.375 4.679688 -9.578125 5.640625 -9.578125 C 6.660156 -9.578125 7.582031 -9.382812 8.40625 -9 L 8.140625 -8.40625 C 7.316406 -8.789062 6.46875 -8.984375 5.59375 -8.984375 C 4.351562 -8.984375 3.367188 -8.597656 2.640625 -7.828125 C 1.910156 -7.054688 1.546875 -6.019531 1.546875 -4.71875 C 1.546875 -3.300781 1.890625 -2.234375 2.578125 -1.515625 C 3.273438 -0.804688 4.296875 -0.453125 5.640625 -0.453125 C 6.503906 -0.453125 7.238281 -0.570312 7.84375 -0.8125 L 7.84375 -4.125 L 5.046875 -4.125 Z M 5.046875 -4.75 "/></g></g><g transform="translate(185.839214, 253.346409)"><g><path d="M 5.421875 0 L 5.265625 -1.109375 L 5.21875 -1.109375 C 4.863281 -0.660156 4.5 -0.34375 4.125 -0.15625 C 3.757812 0.03125 3.320312 0.125 2.8125 0.125 C 2.125 0.125 1.585938 -0.046875 1.203125 -0.390625 C 0.816406 -0.742188 0.625 -1.234375 0.625 -1.859375 C 0.625 -2.546875 0.910156 -3.078125 1.484375 -3.453125 C 2.054688 -3.828125 2.878906 -4.03125 3.953125 -4.0625 L 5.296875 -4.09375 L 5.296875 -4.5625 C 5.296875 -5.226562 5.160156 -5.726562 4.890625 -6.0625 C 4.617188 -6.40625 4.179688 -6.578125 3.578125 -6.578125 C 2.929688 -6.578125 2.257812 -6.394531 1.5625 -6.03125 L 1.328125 -6.59375 C 2.085938 -6.945312 2.847656 -7.125 3.609375 -7.125 C 4.367188 -7.125 4.941406 -6.925781 5.328125 -6.53125 C 5.710938 -6.132812 5.90625 -5.507812 5.90625 -4.65625 L 5.90625 0 Z M 2.84375 -0.453125 C 3.59375 -0.453125 4.179688 -0.664062 4.609375 -1.09375 C 5.046875 -1.519531 5.265625 -2.113281 5.265625 -2.875 L 5.265625 -3.5625 L 4.046875 -3.515625 C 3.054688 -3.460938 2.351562 -3.304688 1.9375 -3.046875 C 1.519531 -2.785156 1.3125 -2.382812 1.3125 -1.84375 C 1.3125 -1.40625 1.441406 -1.0625 1.703125 -0.8125 C 1.972656 -0.570312 2.351562 -0.453125 2.84375 -0.453125 Z M 2.84375 -0.453125 "/></g></g><g transform="translate(192.834218, 253.346409)"><g><path d="M 9.921875 0 L 9.921875 -4.59375 C 9.921875 -5.28125 9.785156 -5.78125 9.515625 -6.09375 C 9.253906 -6.40625 8.847656 -6.5625 8.296875 -6.5625 C 7.585938 -6.5625 7.0625 -6.363281 6.71875 -5.96875 C 6.375 -5.570312 6.203125 -4.953125 6.203125 -4.109375 L 6.203125 0 L 5.546875 0 L 5.546875 -4.796875 C 5.546875 -5.972656 5.003906 -6.5625 3.921875 -6.5625 C 3.179688 -6.5625 2.644531 -6.347656 2.3125 -5.921875 C 1.976562 -5.492188 1.8125 -4.8125 1.8125 -3.875 L 1.8125 0 L 1.171875 0 L 1.171875 -7 L 1.703125 -7 L 1.84375 -6.046875 L 1.875 -6.046875 C 2.070312 -6.390625 2.347656 -6.65625 2.703125 -6.84375 C 3.054688 -7.039062 3.445312 -7.140625 3.875 -7.140625 C 4.976562 -7.140625 5.691406 -6.726562 6.015625 -5.90625 L 6.03125 -5.90625 C 6.257812 -6.300781 6.566406 -6.601562 6.953125 -6.8125 C 7.335938 -7.03125 7.773438 -7.140625 8.265625 -7.140625 C 9.023438 -7.140625 9.597656 -6.9375 9.984375 -6.53125 C 10.367188 -6.125 10.5625 -5.472656 10.5625 -4.578125 L 10.5625 0 Z M 9.921875 0 "/></g></g><g transform="translate(204.490409, 253.346409)"><g><path d="M 4 0.125 C 2.976562 0.125 2.179688 -0.1875 1.609375 -0.8125 C 1.046875 -1.4375 0.765625 -2.316406 0.765625 -3.453125 C 0.765625 -4.566406 1.039062 -5.457031 1.59375 -6.125 C 2.144531 -6.800781 2.882812 -7.140625 3.8125 -7.140625 C 4.632812 -7.140625 5.285156 -6.851562 5.765625 -6.28125 C 6.242188 -5.707031 6.484375 -4.925781 6.484375 -3.9375 L 6.484375 -3.421875 L 1.4375 -3.421875 C 1.445312 -2.453125 1.671875 -1.710938 2.109375 -1.203125 C 2.546875 -0.703125 3.175781 -0.453125 4 -0.453125 C 4.40625 -0.453125 4.757812 -0.476562 5.0625 -0.53125 C 5.363281 -0.59375 5.742188 -0.710938 6.203125 -0.890625 L 6.203125 -0.3125 C 5.804688 -0.144531 5.441406 -0.03125 5.109375 0.03125 C 4.773438 0.09375 4.40625 0.125 4 0.125 Z M 3.8125 -6.578125 C 3.132812 -6.578125 2.59375 -6.351562 2.1875 -5.90625 C 1.78125 -5.457031 1.539062 -4.816406 1.46875 -3.984375 L 5.8125 -3.984375 C 5.8125 -4.796875 5.632812 -5.429688 5.28125 -5.890625 C 4.925781 -6.347656 4.4375 -6.578125 3.8125 -6.578125 Z M 3.8125 -6.578125 "/></g></g><g transform="translate(211.736846, 253.346409)"><g><path d="M 5.515625 -1.828125 C 5.515625 -1.203125 5.273438 -0.71875 4.796875 -0.375 C 4.328125 -0.0390625 3.648438 0.125 2.765625 0.125 C 1.828125 0.125 1.085938 -0.015625 0.546875 -0.296875 L 0.546875 -1 C 1.242188 -0.644531 1.984375 -0.46875 2.765625 -0.46875 C 3.460938 -0.46875 3.988281 -0.582031 4.34375 -0.8125 C 4.707031 -1.039062 4.890625 -1.347656 4.890625 -1.734375 C 4.890625 -2.078125 4.742188 -2.367188 4.453125 -2.609375 C 4.171875 -2.859375 3.703125 -3.097656 3.046875 -3.328125 C 2.347656 -3.578125 1.851562 -3.789062 1.5625 -3.96875 C 1.28125 -4.15625 1.066406 -4.363281 0.921875 -4.59375 C 0.785156 -4.820312 0.71875 -5.101562 0.71875 -5.4375 C 0.71875 -5.96875 0.9375 -6.382812 1.375 -6.6875 C 1.8125 -6.988281 2.425781 -7.140625 3.21875 -7.140625 C 3.976562 -7.140625 4.695312 -7 5.375 -6.71875 L 5.140625 -6.140625 C 4.453125 -6.421875 3.8125 -6.5625 3.21875 -6.5625 C 2.644531 -6.5625 2.191406 -6.46875 1.859375 -6.28125 C 1.523438 -6.09375 1.359375 -5.832031 1.359375 -5.5 C 1.359375 -5.125 1.488281 -4.828125 1.75 -4.609375 C 2.007812 -4.390625 2.519531 -4.144531 3.28125 -3.875 C 3.90625 -3.65625 4.363281 -3.453125 4.65625 -3.265625 C 4.945312 -3.078125 5.160156 -2.867188 5.296875 -2.640625 C 5.441406 -2.410156 5.515625 -2.140625 5.515625 -1.828125 Z M 5.515625 -1.828125 "/></g></g></g></svg>