<svg xmlns="http://www.w3.org/2000/svg" xmlns:xlink="http://www.w3.org/1999/xlink" width="851" zoomAndPan="magnify" viewBox="0 0 638.25 236.249991" height="315" preserveAspectRatio="xMidYMid meet" version="1.0"><defs><clipPath id="0d6b765d7e"><path d="M 9 42.097656 L 178 42.097656 L 178 170 L 9 170 Z M 9 42.097656 " clip-rule="nonzero"/></clipPath><clipPath id="0dd92618ca"><path d="M 459 42.097656 L 628 42.097656 L 628 171 L 459 171 Z M 459 42.097656 " clip-rule="nonzero"/></clipPath><clipPath id="bda78dae6a"><path d="M 188 59 L 449 59 L 449 193.117188 L 188 193.117188 Z M 188 59 " clip-rule="nonzero"/></clipPath></defs><g clip-path="url(#0d6b765d7e)"><path fill="#d91c5c" d="M 177.003906 121.984375 C 162.535156 93.679688 154.84375 65.375 153.03125 54.273438 C 118.40625 54.152344 56.261719 51.292969 9.554688 42.074219 C 15.472656 62.746094 18.121094 71.179688 23.332031 82.265625 C 46.796875 86.03125 105.175781 89.109375 125.011719 88.292969 C 108.308594 93.9375 59.175781 92.660156 50.097656 92.660156 C 53.917969 104.4375 61.671875 116.203125 69.453125 125.117188 C 89.714844 126.144531 127.648438 125.65625 141.75 124.878906 C 132.527344 129.148438 101.730469 131.265625 94.5 131.265625 C 99.820312 139.914062 109.480469 151.84375 117.867188 158.472656 C 131.78125 158.472656 154.886719 156.539062 163.773438 156.179688 C 167.144531 160.8125 171.664062 165.503906 176.996094 169.65625 L 176.996094 121.984375 Z M 177.003906 121.984375 " fill-opacity="1" fill-rule="nonzero"/></g><g clip-path="url(#0dd92618ca)"><path fill="#d91c5c" d="M 613.949219 82.257812 C 619.167969 71.171875 621.808594 62.738281 627.722656 42.066406 C 581.019531 51.285156 518.875 54.144531 484.25 54.265625 C 482.402344 65.527344 474.535156 94.457031 459.683594 123.144531 L 459.683594 170.0625 C 459.683594 170.078125 459.683594 170.085938 459.683594 170.105469 C 465.269531 165.839844 470 160.972656 473.5 156.171875 C 482.386719 156.53125 505.492188 158.464844 519.402344 158.464844 C 527.800781 151.835938 537.449219 139.90625 542.773438 131.257812 C 535.539062 131.257812 504.742188 129.132812 495.519531 124.871094 C 509.625 125.648438 547.558594 126.136719 567.820312 125.109375 C 575.597656 116.195312 583.355469 104.421875 587.175781 92.652344 C 578.105469 92.652344 528.964844 93.929688 512.257812 88.285156 C 532.09375 89.101562 590.484375 86.023438 613.949219 82.257812 Z M 613.949219 82.257812 " fill-opacity="1" fill-rule="nonzero"/></g><g clip-path="url(#bda78dae6a)"><path fill="#29292d" d="M 425.242188 59.082031 L 211.449219 59.082031 C 198.734375 59.082031 188.425781 69.375 188.425781 82.074219 L 188.425781 170.070312 C 188.425781 182.769531 198.734375 193.0625 211.449219 193.0625 L 288.261719 193.0625 C 293.304688 193.0625 297.382812 188.980469 297.382812 183.957031 C 297.382812 178.921875 301.46875 174.847656 306.5 174.847656 L 330.175781 174.847656 C 335.21875 174.847656 339.296875 178.929688 339.296875 183.957031 C 339.296875 188.988281 343.382812 193.0625 348.414062 193.0625 L 425.226562 193.0625 C 437.945312 193.0625 448.25 182.769531 448.25 170.070312 L 448.25 82.074219 C 448.265625 69.375 437.953125 59.082031 425.242188 59.082031 Z M 263.625 150.304688 C 249.175781 150.304688 237.453125 138.601562 237.453125 124.171875 C 237.453125 109.742188 249.175781 98.039062 263.625 98.039062 C 278.074219 98.039062 289.796875 109.742188 289.796875 124.171875 C 289.796875 138.601562 278.074219 150.304688 263.625 150.304688 Z M 373.0625 150.304688 C 358.609375 150.304688 346.890625 138.601562 346.890625 124.171875 C 346.890625 109.742188 358.609375 98.039062 373.0625 98.039062 C 387.511719 98.039062 399.234375 109.742188 399.234375 124.171875 C 399.234375 138.601562 387.519531 150.304688 373.0625 150.304688 Z M 373.0625 150.304688 " fill-opacity="1" fill-rule="nonzero"/></g></svg>