<svg xmlns="http://www.w3.org/2000/svg" xmlns:xlink="http://www.w3.org/1999/xlink" width="500" zoomAndPan="magnify" viewBox="0 0 375 374.999991" height="500" preserveAspectRatio="xMidYMid meet" version="1.0"><defs><clipPath id="f648d4ecf0"><path d="M 26 148.046875 L 114 148.046875 L 114 215 L 26 215 Z M 26 148.046875 " clip-rule="nonzero"/></clipPath><clipPath id="28a29fcd88"><path d="M 261 148.046875 L 349.648438 148.046875 L 349.648438 215 L 261 215 Z M 261 148.046875 " clip-rule="nonzero"/></clipPath><clipPath id="3f0108f3d0"><path d="M 119 156 L 256 156 L 256 226.796875 L 119 226.796875 Z M 119 156 " clip-rule="nonzero"/></clipPath></defs><g clip-path="url(#f648d4ecf0)"><path fill="#d91c5c" d="M 113.6875 189.707031 C 106.136719 174.945312 102.121094 160.1875 101.171875 154.398438 C 83.09375 154.335938 50.640625 152.84375 26.253906 148.035156 C 29.34375 158.816406 30.726562 163.214844 33.445312 168.996094 C 45.699219 170.957031 76.183594 172.5625 86.542969 172.136719 C 77.820312 175.082031 52.164062 174.414062 47.421875 174.414062 C 49.417969 180.554688 53.46875 186.691406 57.53125 191.339844 C 68.109375 191.875 87.917969 191.621094 95.28125 191.214844 C 90.464844 193.441406 74.386719 194.546875 70.609375 194.546875 C 73.386719 199.054688 78.429688 205.277344 82.8125 208.734375 C 90.074219 208.734375 102.140625 207.726562 106.78125 207.539062 C 108.542969 209.953125 110.902344 212.398438 113.683594 214.5625 L 113.683594 189.707031 Z M 113.6875 189.707031 " fill-opacity="1" fill-rule="nonzero"/></g><g clip-path="url(#28a29fcd88)"><path fill="#d91c5c" d="M 341.847656 168.988281 C 344.574219 163.210938 345.953125 158.8125 349.042969 148.03125 C 324.652344 152.839844 292.203125 154.332031 274.125 154.394531 C 273.160156 160.265625 269.050781 175.351562 261.296875 190.3125 L 261.296875 214.777344 C 261.296875 214.785156 261.296875 214.789062 261.296875 214.796875 C 264.214844 212.574219 266.683594 210.035156 268.511719 207.535156 C 273.152344 207.722656 285.214844 208.730469 292.480469 208.730469 C 296.867188 205.273438 301.90625 199.050781 304.683594 194.542969 C 300.90625 194.542969 284.828125 193.433594 280.007812 191.210938 C 287.375 191.617188 307.183594 191.871094 317.761719 191.335938 C 321.824219 186.6875 325.875 180.546875 327.871094 174.410156 C 323.132812 174.410156 297.472656 175.074219 288.75 172.132812 C 299.109375 172.558594 329.597656 170.953125 341.847656 168.988281 Z M 341.847656 168.988281 " fill-opacity="1" fill-rule="nonzero"/></g><g clip-path="url(#3f0108f3d0)"><path fill="#29292d" d="M 243.3125 156.90625 L 131.675781 156.90625 C 125.035156 156.90625 119.65625 162.273438 119.65625 168.894531 L 119.65625 214.78125 C 119.65625 221.402344 125.035156 226.769531 131.675781 226.769531 L 171.785156 226.769531 C 174.417969 226.769531 176.546875 224.640625 176.546875 222.019531 C 176.546875 219.394531 178.679688 217.273438 181.308594 217.273438 L 193.671875 217.273438 C 196.304688 217.273438 198.433594 219.398438 198.433594 222.019531 C 198.433594 224.644531 200.566406 226.769531 203.195312 226.769531 L 243.304688 226.769531 C 249.945312 226.769531 255.328125 221.402344 255.328125 214.78125 L 255.328125 168.894531 C 255.335938 162.273438 249.949219 156.90625 243.3125 156.90625 Z M 158.921875 204.472656 C 151.375 204.472656 145.253906 198.371094 145.253906 190.847656 C 145.253906 183.324219 151.375 177.21875 158.921875 177.21875 C 166.464844 177.21875 172.585938 183.324219 172.585938 190.847656 C 172.585938 198.371094 166.464844 204.472656 158.921875 204.472656 Z M 216.066406 204.472656 C 208.519531 204.472656 202.398438 198.371094 202.398438 190.847656 C 202.398438 183.324219 208.519531 177.21875 216.066406 177.21875 C 223.609375 177.21875 229.730469 183.324219 229.730469 190.847656 C 229.730469 198.371094 223.617188 204.472656 216.066406 204.472656 Z M 216.066406 204.472656 " fill-opacity="1" fill-rule="nonzero"/></g></svg>